# xmcd CD database file
#
# Track frame offsets:
#	150
#	4789
#	29063
#	73412
#	99804
#	143070
#	151608
#	187884
#	211284
#	239497
#	253637
#
# Disc length: 3815 seconds
#
# Revision: 0
# Processed by: cddbd v1.5.2PL0 Copyright (c) Steve Scherf et al.
# Submitted via: CDex 1.70beta2
#
DISCID=8f0ee50b
DTITLE=Henning Wolter Trio - le grand spectacle
DYEAR=2008
DGENRE=Jazz
TTITLE0=Prologue
TTITLE1=Downhill
TTITLE2=LaVoiture Balai
TTITLE3=Breath!
TTITLE4=Pyrenees
TTITLE5=Helicopter
TTITLE6=Provence
TTITLE7=You Don't Know What Love Is
TTITLE8=Le Grand Spectacle
TTITLE9=Le Baroudeur
TTITLE10=It Could Happen To You
EXTD=YEAR: 2008
EXTT0=
EXTT1=
EXTT2=
EXTT3=
EXTT4=
EXTT5=
EXTT6=
EXTT7=
EXTT8=
EXTT9=
EXTT10=
PLAYORDER=
